<svg width="128" height="154" viewBox="0 0 128 154" fill="none" xmlns="http://www.w3.org/2000/svg">
<path fill-rule="evenodd" clip-rule="evenodd" d="M0.0220003 64.128L0.0439997 128.5L1.943 132.684C3.137 135.313 5.423 137.914 8.094 139.684L12.345 142.5L30.923 143C42.414 143.309 50.263 143.947 51.5 144.671C52.6 145.315 55.279 147.677 57.453 149.921L61.406 154H64.292H67.178L71.568 149.483C73.983 146.999 77.122 144.524 78.544 143.983C79.966 143.442 88.544 143 97.605 143H114.08L117.79 141.106C122.373 138.767 124.477 136.496 126.462 131.746L128 128.064V63.908V-0.247986L110.25 0.259014C90.507 0.824014 85.291 1.93501 77.388 7.25901C74.742 9.04201 70.698 12.818 68.4 15.651L64.223 20.801L60.861 16.307C56.509 10.487 49.518 5.39701 42.275 2.77601L36.5 0.686014L18.25 0.221014L0 -0.243986L0.0220003 64.128ZM28 56.5V69H40H52V93V117H64H76V93V69H88H100V56.5V44H64H28V56.5Z" fill="url(#paint0_linear_9355_26316)"/>
<defs>
<linearGradient id="paint0_linear_9355_26316" x1="0" y1="-0.247986" x2="151.603" y2="125.557" gradientUnits="userSpaceOnUse">
<stop stop-color="#28B5F6"/>
<stop offset="1" stop-color="#66D9FF"/>
</linearGradient>
</defs>
</svg>
